<?xml version="1.0" encoding="UTF-8" standalone="no"?>
<svg width="120" height="36" viewBox="0 0 120 36" fill="none" xmlns="http://www.w3.org/2000/svg">
  <g clip-path="url(#clip0_1_2)">
    <!-- Gradient for "Sasphy" text -->
    <linearGradient id="textGradient" x1="0%" y1="0%" x2="100%" y2="0%">
      <stop offset="0%" stop-color="#9945FF" />
      <stop offset="100%" stop-color="#14F195" />
    </linearGradient>
    
    <!-- "Sasphy" text -->
    <path d="M15.624 26.496C13.44 26.496 11.592 26.064 10.08 25.2C8.592 24.336 7.464 23.112 6.696 21.528C5.952 19.944 5.58 18.048 5.58 15.84C5.58 13.632 5.952 11.736 6.696 10.152C7.464 8.568 8.592 7.344 10.08 6.48C11.592 5.616 13.44 5.184 15.624 5.184C17.304 5.184 18.768 5.448 20.016 5.976C21.264 6.504 22.248 7.248 22.968 8.208C23.688 9.144 24.048 10.248 24.048 11.52C24.048 12.48 23.784 13.224 23.256 13.752C22.728 14.28 22.032 14.544 21.168 14.544C20.328 14.544 19.656 14.328 19.152 13.896C18.672 13.464 18.336 12.864 18.144 12.096C17.808 10.704 16.896 9.984 15.408 9.936C14.376 9.936 13.608 10.272 13.104 10.944C12.6 11.592 12.348 12.576 12.348 13.896V17.784C12.348 19.104 12.6 20.088 13.104 20.736C13.608 21.384 14.376 21.72 15.408 21.72C16.896 21.672 17.808 20.952 18.144 19.56C18.336 18.792 18.672 18.192 19.152 17.76C19.656 17.328 20.328 17.112 21.168 17.112C22.032 17.112 22.728 17.376 23.256 17.904C23.784 18.432 24.048 19.176 24.048 20.136C24.048 21.408 23.688 22.512 22.968 23.448C22.248 24.384 21.264 25.128 20.016 25.68C18.768 26.224 17.304 26.496 15.624 26.496Z" fill="url(#textGradient)"/>
    <path d="M34.4901 26.496C32.4341 26.496 30.9621 26.04 30.0741 25.128C29.2101 24.192 28.7781 22.944 28.7781 21.384V13.248H26.7461C26.0741 13.248 25.5341 13.08 25.1261 12.744C24.7421 12.408 24.5501 11.952 24.5501 11.376C24.5501 10.8 24.7421 10.344 25.1261 10.008C25.5341 9.672 26.0741 9.504 26.7461 9.504H28.7781V5.76C28.7781 5.088 28.9701 4.536 29.3541 4.104C29.7621 3.672 30.3141 3.456 31.0101 3.456C31.7061 3.456 32.2461 3.672 32.6301 4.104C33.0381 4.536 33.2421 5.088 33.2421 5.76V9.504H37.0261C37.6981 9.504 38.2261 9.672 38.6101 10.008C39.0181 10.344 39.2221 10.8 39.2221 11.376C39.2221 11.952 39.0181 12.408 38.6101 12.744C38.2261 13.08 37.6981 13.248 37.0261 13.248H33.2421V20.4C33.2421 21.12 33.3701 21.672 33.6261 22.056C33.8821 22.416 34.3261 22.608 34.9581 22.632C35.3661 22.632 35.7621 22.56 36.1461 22.416C36.5301 22.248 36.8661 22.164 37.1461 22.164C37.6981 22.164 38.1301 22.344 38.4421 22.704C38.7781 23.064 38.9461 23.544 38.9461 24.144C38.9461 24.912 38.6221 25.536 37.9741 26.016C37.3261 26.496 36.4861 26.736 35.4501 26.736C35.1461 26.736 34.8181 26.688 34.4661 26.592C34.1141 26.52 34.1141 26.52 34.4901 26.496Z" fill="url(#textGradient)"/>
    <path d="M46.7719 26.496C44.9879 26.496 43.4799 26.112 42.2319 25.344C40.9839 24.576 40.0239 23.528 39.3519 22.2C38.7039 20.848 38.3799 19.348 38.3799 17.7C38.3799 16.028 38.7159 14.528 39.3879 13.2C40.0839 11.848 41.0559 10.788 42.3039 10.02C43.5759 9.252 45.0599 8.868 46.7559 8.868C48.4519 8.868 49.9239 9.252 51.1719 10.02C52.4439 10.788 53.4159 11.848 54.0879 13.2C54.7839 14.528 55.1319 16.028 55.1319 17.7C55.1319 19.372 54.7839 20.872 54.0879 22.2C53.3919 23.528 52.4079 24.576 51.1359 25.344C49.8879 26.112 48.4399 26.496 46.7719 26.496ZM46.7719 22.536C47.7119 22.536 48.4279 22.14 48.9199 21.348C49.4359 20.556 49.6939 19.372 49.6939 17.796C49.6939 16.196 49.4359 15 48.9199 14.208C48.4279 13.416 47.7239 13.02 46.8079 13.02C45.8679 13.02 45.1519 13.416 44.6599 14.208C44.1679 15 43.9219 16.196 43.9219 17.796C43.9219 19.372 44.1679 20.556 44.6599 21.348C45.1519 22.14 45.8559 22.536 46.7719 22.536Z" fill="url(#textGradient)"/>
    <path d="M63.4813 26.496C62.3293 26.496 61.3453 26.16 60.5293 25.488C59.7133 24.816 59.3053 23.952 59.3053 22.896V14.496C59.3053 13.44 59.7133 12.576 60.5293 11.904C61.3453 11.232 62.3293 10.896 63.4813 10.896C64.6333 10.896 65.6173 11.232 66.4333 11.904C67.2493 12.576 67.6573 13.44 67.6573 14.496V22.896C67.6573 23.952 67.2493 24.816 66.4333 25.488C65.6173 26.16 64.6333 26.496 63.4813 26.496ZM63.4813 8.352C62.3293 8.352 61.3453 8.016 60.5293 7.344C59.7133 6.672 59.3053 5.808 59.3053 4.752C59.3053 3.696 59.7133 2.832 60.5293 2.16C61.3453 1.488 62.3293 1.152 63.4813 1.152C64.6333 1.152 65.6173 1.488 66.4333 2.16C67.2493 2.832 67.6573 3.696 67.6573 4.752C67.6573 5.808 67.2493 6.672 66.4333 7.344C65.6173 8.016 64.6333 8.352 63.4813 8.352Z" fill="url(#textGradient)"/>
    <path d="M82.4485 26.496C76.7045 26.496 73.8325 23.52 73.8325 17.568V6.12C73.8325 5.448 74.0245 4.896 74.4085 4.464C74.8165 4.032 75.3685 3.816 76.0645 3.816C76.7605 3.816 77.3005 4.032 77.6845 4.464C78.0925 4.896 78.2965 5.448 78.2965 6.12V17.568C78.2965 19.08 78.5885 20.184 79.1725 20.88C79.7565 21.576 80.7045 21.924 82.0165 21.924C83.3285 21.924 84.2765 21.576 84.8605 20.88C85.4445 20.184 85.7365 19.08 85.7365 17.568V6.12C85.7365 5.448 85.9285 4.896 86.3125 4.464C86.7205 4.032 87.2725 3.816 87.9685 3.816C88.6645 3.816 89.2045 4.032 89.5885 4.464C89.9965 4.896 90.2005 5.448 90.2005 6.12V17.568C90.2005 23.52 87.6165 26.496 82.4485 26.496Z" fill="url(#textGradient)"/>
    <path d="M100.663 26.496C98.7997 26.496 97.1997 26.076 95.8637 25.236C94.5037 24.372 93.4557 23.16 92.7197 21.6C92.0077 20.04 91.6517 18.24 91.6517 16.2C91.6517 14.16 92.0317 12.36 92.7917 10.8C93.5757 9.24 94.6717 8.04 96.0797 7.2C97.5117 6.336 99.1477 5.904 100.987 5.904C102.235 5.904 103.399 6.12 104.479 6.552C105.559 6.984 106.471 7.632 107.215 8.496C107.959 9.36 108.451 10.416 108.691 11.664C108.835 12.36 108.751 12.936 108.439 13.392C108.151 13.824 107.671 14.112 106.999 14.256L94.4317 17.28V18.096C94.4317 19.68 94.8997 20.928 95.8357 21.84C96.7717 22.752 98.0237 23.208 99.5917 23.208C100.359 23.208 101.115 23.088 101.859 22.848C102.627 22.608 103.303 22.308 103.887 21.948C104.471 21.564 104.927 21.372 105.263 21.372C105.695 21.372 106.043 21.504 106.307 21.768C106.595 22.032 106.739 22.356 106.739 22.74C106.739 23.436 106.355 24.084 105.587 24.684C104.843 25.284 103.923 25.764 102.819 26.124C101.739 26.372 100.663 26.496 99.5917 26.496H100.663ZM100.339 9.096C99.1157 9.096 98.1317 9.492 97.3877 10.284C96.6677 11.052 96.2477 12.06 96.1277 13.308L105.587 11.016C105.419 10.368 105.035 9.864 104.435 9.504C103.859 9.12 103.159 8.928 102.343 8.928L100.339 9.096Z" fill="url(#textGradient)"/>
    
    <!-- Music Note Icon -->
    <path d="M116 12C113.791 12 112 13.791 112 16C112 18.209 113.791 20 116 20C118.209 20 120 18.209 120 16C120 13.791 118.209 12 116 12ZM113.6 16C113.6 17.325 114.675 18.4 116 18.4C117.325 18.4 118.4 17.325 118.4 16C118.4 14.675 117.325 13.6 116 13.6C114.675 13.6 113.6 14.675 113.6 16Z" fill="url(#textGradient)"/>
    <path d="M116 9.6C116.442 9.6 116.8 9.242 116.8 8.8V5.6C116.8 5.158 116.442 4.8 116 4.8C115.558 4.8 115.2 5.158 115.2 5.6V8.8C115.2 9.242 115.558 9.6 116 9.6Z" fill="url(#textGradient)"/>
    <path d="M116 22.4C115.558 22.4 115.2 22.758 115.2 23.2V26.4C115.2 26.842 115.558 27.2 116 27.2C116.442 27.2 116.8 26.842 116.8 26.4V23.2C116.8 22.758 116.442 22.4 116 22.4Z" fill="url(#textGradient)"/>
  </g>
  <defs>
    <clipPath id="clip0_1_2">
      <rect width="120" height="36" fill="white"/>
    </clipPath>
  </defs>
</svg>
