<?xml version="1.0" standalone="no"?>
<!DOCTYPE svg PUBLIC "-//W3C//DTD SVG 20010904//EN"
 "http://www.w3.org/TR/2001/REC-SVG-20010904/DTD/svg10.dtd">
<svg version="1.0" xmlns="http://www.w3.org/2000/svg"
 width="825.000000pt" height="825.000000pt" viewBox="0 0 825.000000 825.000000"
 preserveAspectRatio="xMidYMid meet">

<g transform="translate(0.000000,825.000000) scale(0.100000,-0.100000)"
fill="#000000" stroke="none">
<path d="M3835 8214 c-452 -47 -768 -116 -1100 -242 -471 -178 -841 -387
-1221 -690 -149 -118 -469 -440 -590 -592 -482 -606 -769 -1282 -870 -2050
-22 -166 -31 -676 -15 -848 76 -811 355 -1527 846 -2167 385 -501 850 -884
1424 -1170 438 -219 939 -363 1446 -416 174 -18 586 -16 775 5 1601 174 2882
1176 3449 2698 123 332 199 672 232 1038 14 165 14 594 0 745 -17 171 -64 463
-86 532 -3 9 -28 0 -78 -27 -146 -79 -292 -115 -462 -115 -350 1 -674 178
-844 459 -28 47 -60 118 -85 190 -5 14 -12 17 -34 12 -15 -3 -85 -9 -157 -12
-602 -29 -1124 379 -1261 988 -25 107 -25 358 -1 461 10 43 17 80 15 81 -1 1
-34 20 -73 40 -230 124 -397 334 -461 581 -24 91 -25 312 -2 403 8 34 15 62
14 62 -108 20 -294 32 -531 35 -159 1 -308 1 -330 -1z m-695 -688 c0 -2 -30
-14 -67 -27 -227 -74 -503 -214 -760 -386 -277 -185 -613 -496 -827 -763 -347
-434 -569 -875 -695 -1375 -73 -292 -101 -504 -108 -822 -6 -275 2 -406 43
-670 107 -695 421 -1359 869 -1833 l80 -84 -63 54 c-35 29 -106 99 -157 154
-494 532 -791 1153 -910 1906 -23 140 -32 605 -16 779 22 231 80 504 162 756
24 72 43 144 44 160 2 38 59 175 141 338 271 544 622 957 1099 1294 149 105
290 187 490 284 196 95 282 128 510 194 156 46 165 48 165 41z m120 -655
c-388 -139 -714 -353 -1025 -672 -364 -373 -630 -817 -761 -1272 -110 -382
-154 -779 -123 -1117 23 -259 88 -547 175 -787 110 -298 321 -650 515 -858 35
-37 55 -63 43 -57 -32 17 -206 202 -297 316 -119 149 -208 290 -301 476 -192
387 -280 738 -293 1171 -8 291 14 500 82 767 164 649 579 1261 1111 1639 238
170 517 304 817 393 167 49 193 50 57 1z m277 -607 c-3 -4 -42 -21 -85 -39
-170 -69 -403 -217 -571 -360 -400 -343 -657 -760 -782 -1269 -105 -432 -74
-923 85 -1330 75 -193 191 -404 287 -526 62 -79 41 -69 -35 15 -138 154 -222
276 -309 450 -360 722 -284 1602 194 2238 278 370 642 636 1064 777 158 53
162 54 152 44z m822 -669 c515 -75 934 -380 1151 -838 116 -244 163 -502 140
-759 -14 -149 -31 -233 -72 -358 -122 -372 -396 -688 -751 -867 -240 -120
-542 -178 -799 -153 -677 65 -1212 545 -1345 1207 -27 136 -25 454 5 590 137
630 634 1090 1272 1178 131 18 273 18 399 0z"/>
<path d="M4042 4484 c-110 -29 -201 -107 -250 -212 -24 -50 -27 -69 -27 -162
0 -95 3 -111 29 -167 35 -76 113 -153 193 -191 51 -24 70 -27 159 -27 96 0
103 2 176 38 89 44 136 92 182 187 28 59 31 74 31 160 0 86 -3 101 -32 162
-83 175 -273 263 -461 212z"/>
</g>
</svg>
